<svg version="1.1" id="Layer_1" xmlns="http://www.w3.org/2000/svg" xmlns:xlink="http://www.w3.org/1999/xlink" x="0px" y="0px"
	 width="100%" viewBox="0 0 500 500" enable-background="new 0 0 500 500" xml:space="preserve">
<path fill="#FEFEFE" opacity="1.000000" stroke="none" 
	d="
M264.000000,501.000000 
	C176.000015,501.000000 88.500038,501.000000 1.000047,501.000000 
	C1.000031,334.333405 1.000031,167.666794 1.000016,1.000136 
	C167.666565,1.000091 334.333130,1.000091 500.999756,1.000046 
	C500.999847,167.666519 500.999847,334.333038 500.999939,500.999786 
	C422.166656,501.000000 343.333344,501.000000 264.000000,501.000000 
M322.499725,420.605713 
	C349.824219,420.627991 377.151978,420.894501 404.471191,420.526276 
	C412.856293,420.413300 421.520630,419.619080 429.537689,417.323181 
	C463.091675,407.713959 485.045471,377.906830 485.067719,342.910522 
	C485.106598,281.762970 485.110779,220.615311 485.050049,159.467804 
	C485.044952,154.323990 484.712891,149.146576 484.071381,144.042770 
	C479.694031,109.215790 446.614929,79.191452 411.829559,79.133858 
	C305.696503,78.958107 199.562973,79.046577 93.429710,79.126854 
	C89.152466,79.130089 84.789764,79.717407 80.612564,80.670837 
	C43.585083,89.122238 19.593332,118.948395 19.537922,157.216568 
	C19.389307,259.850952 19.451715,362.485657 19.475729,465.120239 
	C19.479252,480.176025 31.244453,486.852295 44.330425,479.382233 
	C77.254288,460.587708 110.154633,441.751495 143.158279,423.098114 
	C145.750458,421.633057 149.069031,420.788574 152.053192,420.780151 
	C208.535065,420.620758 265.017426,420.630890 322.499725,420.605713 
z"/>
<path fill="#030303" opacity="1.000000" stroke="none" 
	d="
M321.999695,420.605713 
	C265.017426,420.630890 208.535065,420.620758 152.053192,420.780151 
	C149.069031,420.788574 145.750458,421.633057 143.158279,423.098114 
	C110.154633,441.751495 77.254288,460.587708 44.330425,479.382233 
	C31.244453,486.852295 19.479252,480.176025 19.475729,465.120239 
	C19.451715,362.485657 19.389307,259.850952 19.537922,157.216568 
	C19.593332,118.948395 43.585083,89.122238 80.612564,80.670837 
	C84.789764,79.717407 89.152466,79.130089 93.429710,79.126854 
	C199.562973,79.046577 305.696503,78.958107 411.829559,79.133858 
	C446.614929,79.191452 479.694031,109.215790 484.071381,144.042770 
	C484.712891,149.146576 485.044952,154.323990 485.050049,159.467804 
	C485.110779,220.615311 485.106598,281.762970 485.067719,342.910522 
	C485.045471,377.906830 463.091675,407.713959 429.537689,417.323181 
	C421.520630,419.619080 412.856293,420.413300 404.471191,420.526276 
	C377.151978,420.894501 349.824219,420.627991 321.999695,420.605713 
M454.775208,161.630707 
	C454.378143,156.496368 454.603516,151.220993 453.477539,146.251831 
	C448.289001,123.354141 429.928955,109.406044 405.430145,109.402618 
	C312.955719,109.389702 220.481262,109.403534 128.006821,109.409393 
	C117.676346,109.410049 107.343849,109.294456 97.015800,109.456642 
	C70.228493,109.877281 49.953957,129.857483 49.926876,156.211304 
	C49.830830,249.685364 49.880657,343.159576 49.894215,436.633728 
	C49.894390,437.844299 50.143654,439.054810 50.327843,440.731262 
	C52.448116,439.605042 54.059383,438.803497 55.619549,437.912476 
	C80.886070,423.482300 106.193398,409.122406 131.370590,394.537872 
	C136.892838,391.339020 142.488205,389.896667 148.878281,389.905426 
	C234.854370,390.023407 320.830688,389.946014 406.806854,390.027863 
	C422.144287,390.042450 434.586426,384.248596 444.363647,372.591461 
	C452.250580,363.188080 454.811890,352.028107 454.807770,340.052643 
	C454.787323,280.902344 454.783844,221.752029 454.775208,161.630707 
z"/>
<path fill="#FEFEFE" opacity="1.000000" stroke="none" 
	d="
M454.774780,162.116211 
	C454.783844,221.752029 454.787323,280.902344 454.807770,340.052643 
	C454.811890,352.028107 452.250580,363.188080 444.363647,372.591461 
	C434.586426,384.248596 422.144287,390.042450 406.806854,390.027863 
	C320.830688,389.946014 234.854370,390.023407 148.878281,389.905426 
	C142.488205,389.896667 136.892838,391.339020 131.370590,394.537872 
	C106.193398,409.122406 80.886070,423.482300 55.619549,437.912476 
	C54.059383,438.803497 52.448116,439.605042 50.327843,440.731262 
	C50.143654,439.054810 49.894390,437.844299 49.894215,436.633728 
	C49.880657,343.159576 49.830830,249.685364 49.926876,156.211304 
	C49.953957,129.857483 70.228493,109.877281 97.015800,109.456642 
	C107.343849,109.294456 117.676346,109.410049 128.006821,109.409393 
	C220.481262,109.403534 312.955719,109.389702 405.430145,109.402618 
	C429.928955,109.406044 448.289001,123.354141 453.477539,146.251831 
	C454.603516,151.220993 454.378143,156.496368 454.774780,162.116211 
z"/>
</svg>